<svg width="16" height="16" viewBox="0 0 16 16" fill="none" xmlns="http://www.w3.org/2000/svg">
<path d="M6.57233 7.02347C6.97296 7.39906 7.4487 7.58685 7.99956 7.58685C8.55043 7.58685 9.01365 7.39906 9.38924 7.02347C9.78986 6.62285 9.99018 6.1471 9.99018 5.59624C9.99018 5.04538 9.78986 4.58216 9.38924 4.20657C9.01365 3.80595 8.55043 3.60563 7.99956 3.60563C7.4487 3.60563 6.97296 3.80595 6.57233 4.20657C6.19675 4.58216 6.00895 5.04538 6.00895 5.59624C6.00895 6.1471 6.19675 6.62285 6.57233 7.02347ZM4.01834 1.65258C5.12007 0.550861 6.44714 0 7.99956 0C9.55199 0 10.8665 0.550861 11.9432 1.65258C13.0449 2.72926 13.5958 4.04382 13.5958 5.59624C13.5958 6.37246 13.3955 7.26135 12.9949 8.26291C12.6193 9.26448 12.1561 10.2034 11.6052 11.0798C11.0543 11.9562 10.5035 12.7825 9.95262 13.5587C9.4268 14.3099 8.97609 14.9108 8.6005 15.3615L7.99956 16C7.84933 15.8247 7.64902 15.5994 7.39863 15.3239C7.14823 15.0235 6.69753 14.4476 6.04651 13.5962C5.3955 12.7199 4.8196 11.8811 4.31881 11.0798C3.84307 10.2535 3.40489 9.32707 3.00426 8.30047C2.60363 7.27387 2.40332 6.37246 2.40332 5.59624C2.40332 4.04382 2.94166 2.72926 4.01834 1.65258Z" fill="#46464F"/>
</svg>
