<svg width="61" height="24" viewBox="0 0 61 24" fill="none" xmlns="http://www.w3.org/2000/svg">
<path d="M25.5328 14.7148C24.251 14.7148 23.2119 15.7539 23.2119 17.0357V21.6775C23.2119 22.9593 24.251 23.9984 25.5328 23.9984C26.8146 23.9984 27.8537 22.9593 27.8537 21.6775V17.0357C27.855 15.7539 26.8159 14.7148 25.5328 14.7148Z" fill="#5839F0"/>
<path d="M13.9271 17.0356C13.9271 18.3174 12.888 19.3565 11.6062 19.3565C10.3244 19.3565 9.28533 18.3174 9.28533 17.0356V3.10897C9.28533 1.82717 8.24624 0.788086 6.96444 0.788086C5.68264 0.788086 4.64355 1.82717 4.64355 3.10897V17.0356C4.64355 20.881 7.76081 23.9996 11.6075 23.9996C15.4542 23.9996 18.5715 20.8823 18.5715 17.0356C18.5715 15.7538 17.5324 14.7147 16.2506 14.7147C14.9688 14.7147 13.9271 15.7538 13.9271 17.0356Z" fill="#5839F0"/>
<path d="M58.0292 14.7151C56.7474 14.7151 55.7083 15.7541 55.7083 17.0359C55.7083 18.3178 54.6692 19.3568 53.3874 19.3568C52.1056 19.3568 51.0666 18.3178 51.0666 17.0359V14.1942C51.88 14.492 52.7131 14.7151 53.3874 14.7151C57.2328 14.7151 60.3514 11.5978 60.3514 7.75109C60.3514 3.90437 57.2341 0.787109 53.3874 0.787109C49.8989 0.787109 47.0099 3.35334 46.5035 6.70019L36.6072 1.4326L35.9368 1.07443C35.9276 1.06918 35.9198 1.06525 35.9106 1.06L35.8804 1.04294C35.8634 1.03376 35.845 1.0272 35.8266 1.01933C35.7807 0.997024 35.7335 0.974721 35.6862 0.956354C35.6587 0.944546 35.6298 0.935363 35.601 0.924867C35.559 0.909124 35.5157 0.894692 35.4724 0.881572C35.437 0.871076 35.4002 0.861891 35.3635 0.85402C35.3268 0.844836 35.2913 0.835651 35.2546 0.829092C35.21 0.819908 35.1654 0.814661 35.1208 0.808101C35.0906 0.804166 35.0617 0.800229 35.0316 0.797605C34.9804 0.792358 34.9292 0.791044 34.8767 0.789732C34.8571 0.789732 34.8387 0.787109 34.819 0.787109C34.8125 0.787109 34.8059 0.788421 34.7993 0.788421C34.7495 0.788421 34.6983 0.792356 34.6485 0.796292C34.6196 0.798916 34.5907 0.798917 34.5632 0.802852C34.5238 0.806788 34.4845 0.81466 34.4451 0.82122C34.4071 0.82778 34.3703 0.831716 34.3323 0.839588C34.306 0.844836 34.2811 0.852709 34.2549 0.859269C34.2063 0.871076 34.1578 0.882883 34.1106 0.898626C34.0961 0.902562 34.083 0.909123 34.0686 0.914371C34.0122 0.934051 33.9557 0.95373 33.9006 0.977346C33.8862 0.983906 33.8731 0.990465 33.86 0.997025C33.8062 1.02064 33.7537 1.04557 33.7025 1.07312C33.6697 1.09018 33.6396 1.11117 33.6081 1.13085C33.5766 1.14921 33.5451 1.16758 33.5149 1.18726C33.4664 1.22006 33.4205 1.25548 33.3745 1.29222C33.3627 1.3014 33.3509 1.30928 33.3391 1.31977C33.2932 1.35782 33.2486 1.3998 33.2053 1.44178C33.1948 1.45228 33.1843 1.46146 33.1738 1.47065C33.1384 1.50607 33.1056 1.54412 33.0728 1.58217C33.0557 1.60185 33.0374 1.62021 33.0216 1.63989C32.998 1.66876 32.9757 1.70025 32.9534 1.73173C32.9298 1.76322 32.9062 1.79471 32.8839 1.82751C32.8681 1.85112 32.8537 1.87605 32.8392 1.90098C32.813 1.94427 32.7868 1.98626 32.7645 2.03086C32.7618 2.03611 32.7579 2.04136 32.7553 2.04792C32.7461 2.06498 32.7395 2.08334 32.7317 2.10171C32.7094 2.14763 32.6871 2.19486 32.6687 2.24209C32.6569 2.27096 32.6477 2.29851 32.6372 2.32737C32.6215 2.36935 32.607 2.41265 32.5939 2.45594C32.5834 2.49137 32.5742 2.5281 32.5664 2.56484C32.5572 2.60157 32.548 2.637 32.5414 2.67373C32.5322 2.71834 32.527 2.76295 32.5204 2.80755C32.5165 2.83773 32.5126 2.86659 32.5099 2.89677C32.5047 2.94794 32.5034 2.9991 32.5021 3.05158C32.5021 3.07126 32.4994 3.08963 32.4994 3.10931V10.0733H31.9195H31.3357H25.6129C25.5998 10.0733 25.5853 10.072 25.5722 10.0707C26.8356 10.0497 27.8537 9.01977 27.8537 7.75109C27.8537 3.90568 24.7365 0.787109 20.8898 0.787109C17.0444 0.787109 13.9258 3.90437 13.9258 7.75109V12.3929C13.9258 13.6747 14.9649 14.7137 16.2467 14.7137C17.5285 14.7137 18.5676 13.6747 18.5676 12.3929V7.75109C18.5676 6.46928 19.6066 5.4302 20.8884 5.4302C22.1702 5.4302 23.2093 6.46928 23.2093 7.75109C23.2093 9.01977 24.2274 10.0484 25.4909 10.0707C24.2274 10.0917 23.2093 11.1216 23.2093 12.3902C23.2093 13.651 24.2156 14.6757 25.4686 14.7085C25.4895 14.7111 25.5092 14.7151 25.5302 14.7151H31.3357H32.4968V17.0359C32.4968 20.8814 35.6141 23.9999 39.4608 23.9999C43.3075 23.9999 46.4235 20.8827 46.4235 17.0359C46.4235 13.1892 43.3062 10.072 39.4595 10.072H37.1386V6.97571L46.4235 11.9179V17.0359C46.4235 20.8814 49.5407 23.9999 53.3874 23.9999C57.2341 23.9999 60.3514 20.8827 60.3514 17.0359C60.3501 15.7541 59.311 14.7151 58.0292 14.7151ZM51.0666 7.75109C51.0666 6.46928 52.1056 5.4302 53.3874 5.4302C54.6692 5.4302 55.7083 6.46928 55.7083 7.75109C55.7083 8.11713 55.6217 8.48842 55.4394 8.83478C54.8411 9.96833 53.4373 10.4026 52.3037 9.80433L51.0652 9.13391V7.75109H51.0666ZM39.4608 14.7151C40.7426 14.7151 41.7817 15.7541 41.7817 17.0359C41.7817 18.3178 40.7426 19.3568 39.4608 19.3568C38.179 19.3568 37.1399 18.3178 37.1399 17.0359V14.7151H39.4608Z" fill="#5839F0"/>
<path d="M25.5328 13.9277C24.251 13.9277 23.2119 14.9668 23.2119 16.2486V20.8904C23.2119 22.1722 24.251 23.2113 25.5328 23.2113C26.8146 23.2113 27.8537 22.1722 27.8537 20.8904V16.2486C27.855 14.9668 26.8159 13.9277 25.5328 13.9277Z" fill="white"/>
<path d="M13.9271 16.2485C13.9271 17.5303 12.888 18.5694 11.6062 18.5694C10.3244 18.5694 9.28533 17.5303 9.28533 16.2485V2.32186C9.28533 1.04006 8.24624 0.000976562 6.96444 0.000976562C5.68264 0.000976562 4.64355 1.04006 4.64355 2.32186V16.2485C4.64355 20.0939 7.76081 23.2125 11.6075 23.2125C15.4542 23.2125 18.5715 20.0952 18.5715 16.2485C18.5715 14.9667 17.5324 13.9276 16.2506 13.9276C14.9688 13.9276 13.9271 14.9667 13.9271 16.2485Z" fill="white"/>
<path d="M58.0292 13.928C56.7474 13.928 55.7083 14.967 55.7083 16.2488C55.7083 17.5306 54.6692 18.5697 53.3874 18.5697C52.1056 18.5697 51.0666 17.5306 51.0666 16.2488V13.4071C51.88 13.7049 52.7131 13.928 53.3874 13.928C57.2328 13.928 60.3514 10.8107 60.3514 6.96398C60.3514 3.11726 57.2341 0 53.3874 0C49.8989 0 47.0099 2.56623 46.5035 5.91308L36.6072 0.645493L35.9368 0.287323C35.9276 0.282075 35.9198 0.278139 35.9106 0.272892L35.8804 0.255835C35.8634 0.246651 35.845 0.24009 35.8266 0.232219C35.7807 0.209915 35.7335 0.187612 35.6862 0.169244C35.6587 0.157436 35.6298 0.148254 35.601 0.137758C35.559 0.122014 35.5157 0.107582 35.4724 0.0944625C35.437 0.0839667 35.4002 0.074782 35.3635 0.0669101C35.3268 0.0577263 35.2913 0.0485421 35.2546 0.0419822C35.21 0.0327984 35.1654 0.027552 35.1208 0.0209921C35.0906 0.0170562 35.0617 0.01312 35.0316 0.0104961C34.9804 0.00524815 34.9292 0.00393449 34.8767 0.00262251C34.8571 0.00262251 34.8387 0 34.819 0C34.8125 0 34.8059 0.00131126 34.7993 0.00131126C34.7495 0.00131126 34.6983 0.00524687 34.6485 0.0091828C34.6196 0.0118068 34.5907 0.0118072 34.5632 0.0157431C34.5238 0.019679 34.4845 0.0275508 34.4451 0.0341107C34.4071 0.0406706 34.3703 0.0446064 34.3323 0.0524783C34.306 0.0577262 34.2811 0.0655993 34.2549 0.0721592C34.2063 0.0839669 34.1578 0.0957731 34.1106 0.111517C34.0961 0.115453 34.083 0.122014 34.0686 0.127262C34.0122 0.146942 33.9557 0.166621 33.9006 0.190236C33.8862 0.196796 33.8731 0.203355 33.86 0.209915C33.8062 0.233531 33.7537 0.258459 33.7025 0.28601C33.6697 0.303066 33.6396 0.324058 33.6081 0.343737C33.5766 0.362105 33.5451 0.380474 33.5149 0.400153C33.4664 0.432953 33.4205 0.468375 33.3745 0.50511C33.3627 0.514294 33.3509 0.522167 33.3391 0.532663C33.2932 0.57071 33.2486 0.612692 33.2053 0.654675C33.1948 0.665171 33.1843 0.674355 33.1738 0.683539C33.1384 0.718962 33.1056 0.757011 33.0728 0.795058C33.0557 0.814738 33.0374 0.833106 33.0216 0.852785C32.998 0.881649 32.9757 0.913136 32.9534 0.944623C32.9298 0.976111 32.9062 1.0076 32.8839 1.0404C32.8681 1.06401 32.8537 1.08894 32.8392 1.11387C32.813 1.15716 32.7868 1.19915 32.7645 1.24375C32.7618 1.249 32.7579 1.25425 32.7553 1.26081C32.7461 1.27787 32.7395 1.29623 32.7317 1.3146C32.7094 1.36052 32.6871 1.40775 32.6687 1.45498C32.6569 1.48385 32.6477 1.5114 32.6372 1.54026C32.6215 1.58224 32.607 1.62554 32.5939 1.66884C32.5834 1.70426 32.5742 1.74099 32.5664 1.77773C32.5572 1.81447 32.548 1.84989 32.5414 1.88662C32.5322 1.93123 32.527 1.97584 32.5204 2.02044C32.5165 2.05062 32.5126 2.07948 32.5099 2.10966C32.5047 2.16083 32.5034 2.21199 32.5021 2.26447C32.5021 2.28415 32.4994 2.30252 32.4994 2.3222V9.28618H31.9195H31.3357H25.6129C25.5998 9.28618 25.5853 9.28486 25.5722 9.28355C26.8356 9.26256 27.8537 8.23266 27.8537 6.96398C27.8537 3.11857 24.7365 0 20.8898 0C17.0444 0 13.9258 3.11726 13.9258 6.96398V11.6058C13.9258 12.8876 14.9649 13.9266 16.2467 13.9266C17.5285 13.9266 18.5676 12.8876 18.5676 11.6058V6.96398C18.5676 5.68217 19.6066 4.64309 20.8884 4.64309C22.1702 4.64309 23.2093 5.68217 23.2093 6.96398C23.2093 8.23266 24.2274 9.26125 25.4909 9.28355C24.2274 9.30454 23.2093 10.3344 23.2093 11.6031C23.2093 12.8639 24.2156 13.8886 25.4686 13.9214C25.4895 13.924 25.5092 13.928 25.5302 13.928H31.3357H32.4968V16.2488C32.4968 20.0942 35.6141 23.2128 39.4608 23.2128C43.3075 23.2128 46.4235 20.0956 46.4235 16.2488C46.4235 12.4021 43.3062 9.28486 39.4595 9.28486H37.1386V6.1886L46.4235 11.1308V16.2488C46.4235 20.0942 49.5407 23.2128 53.3874 23.2128C57.2341 23.2128 60.3514 20.0956 60.3514 16.2488C60.3501 14.967 59.311 13.928 58.0292 13.928ZM51.0666 6.96398C51.0666 5.68217 52.1056 4.64309 53.3874 4.64309C54.6692 4.64309 55.7083 5.68217 55.7083 6.96398C55.7083 7.33002 55.6217 7.70131 55.4394 8.04767C54.8411 9.18122 53.4373 9.61548 52.3037 9.01722L51.0652 8.3468V6.96398H51.0666ZM39.4608 13.928C40.7426 13.928 41.7817 14.967 41.7817 16.2488C41.7817 17.5306 40.7426 18.5697 39.4608 18.5697C38.179 18.5697 37.1399 17.5306 37.1399 16.2488V13.928H39.4608Z" fill="white"/>
<path d="M2.32119 13.7225C1.18633 13.7225 0.262695 12.7988 0.262695 11.664C0.262695 10.5291 1.18633 9.60547 2.32119 9.60547C3.45605 9.60547 4.37968 10.5291 4.37968 11.664C4.37968 12.7988 3.45605 13.7225 2.32119 13.7225Z" fill="#5839F0"/>
<path d="M2.32089 9.86756C3.31143 9.86756 4.11699 10.6731 4.11699 11.6637C4.11699 12.6542 3.31143 13.4598 2.32089 13.4598C1.33035 13.4598 0.524791 12.6542 0.524791 11.6637C0.524791 10.6731 1.33035 9.86756 2.32089 9.86756ZM2.32089 9.34277C1.03909 9.34277 0 10.3819 0 11.6637C0 12.9455 1.03909 13.9845 2.32089 13.9845C3.60269 13.9845 4.64178 12.9455 4.64178 11.6637C4.64178 10.3819 3.60269 9.34277 2.32089 9.34277Z" fill="white"/>
<path d="M16.2479 18.3064C17.3848 18.3064 18.3064 17.3848 18.3064 16.2479C18.3064 15.1111 17.3848 14.1895 16.2479 14.1895C15.1111 14.1895 14.1895 15.1111 14.1895 16.2479C14.1895 17.3848 15.1111 18.3064 16.2479 18.3064Z" fill="#5839F0"/>
<path d="M16.2476 14.4525C17.2382 14.4525 18.0437 15.2581 18.0437 16.2486C18.0437 17.2392 17.2382 18.0447 16.2476 18.0447C15.2571 18.0447 14.4515 17.2392 14.4515 16.2486C14.4515 15.2581 15.2571 14.4525 16.2476 14.4525ZM16.2476 13.9277C14.9658 13.9277 13.9268 14.9668 13.9268 16.2486C13.9268 17.5304 14.9658 18.5695 16.2476 18.5695C17.5294 18.5695 18.5685 17.5304 18.5685 16.2486C18.5698 14.9668 17.5308 13.9277 16.2476 13.9277Z" fill="white"/>
<path d="M6.96377 4.38066C5.82891 4.38066 4.90527 3.45702 4.90527 2.32216C4.90527 1.1873 5.82891 0.263672 6.96377 0.263672C8.09863 0.263672 9.02226 1.1873 9.02226 2.32216C9.02226 3.45702 8.09863 4.38066 6.96377 4.38066Z" fill="#5839F0"/>
<path d="M6.96444 0.525768C7.95499 0.525768 8.76054 1.33132 8.76054 2.32186C8.76054 3.31241 7.95499 4.11796 6.96444 4.11796C5.9739 4.11796 5.16835 3.31241 5.16835 2.32186C5.16835 1.33132 5.9739 0.525768 6.96444 0.525768ZM6.96444 0.000976562C5.68264 0.000976562 4.64355 1.04006 4.64355 2.32186C4.64355 3.60367 5.68264 4.64275 6.96444 4.64275C8.24624 4.64275 9.28533 3.60367 9.28533 2.32186C9.28533 1.04006 8.24624 0.000976562 6.96444 0.000976562Z" fill="white"/>
<path d="M25.5321 22.951C24.3973 22.951 23.4736 22.0273 23.4736 20.8925C23.4736 19.7576 24.3973 18.834 25.5321 18.834C26.667 18.834 27.5906 19.7576 27.5906 20.8925C27.5906 22.0273 26.6683 22.951 25.5321 22.951Z" fill="#5839F0"/>
<path d="M25.5328 19.0961C26.5233 19.0961 27.3289 19.9016 27.3289 20.8922C27.3289 21.8827 26.5233 22.6883 25.5328 22.6883C24.5423 22.6883 23.7367 21.8827 23.7367 20.8922C23.7367 19.9016 24.5423 19.0961 25.5328 19.0961ZM25.5328 18.5713C24.251 18.5713 23.2119 19.6104 23.2119 20.8922C23.2119 22.174 24.251 23.2131 25.5328 23.2131C26.8146 23.2131 27.8537 22.174 27.8537 20.8922C27.855 19.6104 26.8159 18.5713 25.5328 18.5713Z" fill="white"/>
<path d="M25.5321 9.02324C24.3973 9.02324 23.4736 8.0996 23.4736 6.96474C23.4736 5.82988 24.3973 4.90625 25.5321 4.90625C26.667 4.90625 27.5906 5.82988 27.5906 6.96474C27.5906 8.0996 26.6683 9.02324 25.5321 9.02324Z" fill="#5839F0"/>
<path d="M25.5328 5.16737C26.5233 5.16737 27.3289 5.97292 27.3289 6.96347C27.3289 7.95401 26.5233 8.75956 25.5328 8.75956C24.5423 8.75956 23.7367 7.95401 23.7367 6.96347C23.7367 5.97292 24.5423 5.16737 25.5328 5.16737ZM25.5328 4.64258C24.251 4.64258 23.2119 5.68166 23.2119 6.96347C23.2119 8.24527 24.251 9.28435 25.5328 9.28435C26.8146 9.28435 27.8537 8.24527 27.8537 6.96347C27.855 5.68166 26.8159 4.64258 25.5328 4.64258Z" fill="white"/>
<path d="M16.2479 13.6658C15.1131 13.6658 14.1895 12.7422 14.1895 11.6073C14.1895 10.4725 15.1131 9.54883 16.2479 9.54883C17.3828 9.54883 18.3064 10.4725 18.3064 11.6073C18.3064 12.7422 17.3841 13.6658 16.2479 13.6658Z" fill="#5839F0"/>
<path d="M16.2476 9.81092C17.2382 9.81092 18.0437 10.6165 18.0437 11.607C18.0437 12.5976 17.2382 13.4031 16.2476 13.4031C15.2571 13.4031 14.4515 12.5976 14.4515 11.607C14.4515 10.6165 15.2571 9.81092 16.2476 9.81092ZM16.2476 9.28613C14.9658 9.28613 13.9268 10.3252 13.9268 11.607C13.9268 12.8888 14.9658 13.9279 16.2476 13.9279C17.5294 13.9279 18.5685 12.8888 18.5685 11.607C18.5685 10.3252 17.5308 9.28613 16.2476 9.28613Z" fill="white"/>
<path d="M25.5321 13.6658C24.3973 13.6658 23.4736 12.7422 23.4736 11.6073C23.4736 10.4725 24.3973 9.54883 25.5321 9.54883C26.667 9.54883 27.5906 10.4725 27.5906 11.6073C27.5906 12.7422 26.6683 13.6658 25.5321 13.6658Z" fill="#5839F0"/>
<path d="M25.5328 9.81092C26.5233 9.81092 27.3289 10.6165 27.3289 11.607C27.3289 12.5976 26.5233 13.4031 25.5328 13.4031C24.5423 13.4031 23.7367 12.5976 23.7367 11.607C23.7367 10.6165 24.5423 9.81092 25.5328 9.81092ZM25.5328 9.28613C24.251 9.28613 23.2119 10.3252 23.2119 11.607C23.2119 12.8888 24.251 13.9279 25.5328 13.9279C26.8146 13.9279 27.8537 12.8888 27.8537 11.607C27.855 10.3252 26.8159 9.28613 25.5328 9.28613Z" fill="white"/>
<path d="M58.0292 18.3064C56.8943 18.3064 55.9707 17.3828 55.9707 16.2479C55.9707 15.1131 56.8943 14.1895 58.0292 14.1895C59.1641 14.1895 60.0877 15.1131 60.0877 16.2479C60.0877 17.3828 59.1641 18.3064 58.0292 18.3064Z" fill="#5839F0"/>
<path d="M58.0289 14.4525C59.0194 14.4525 59.825 15.2581 59.825 16.2486C59.825 17.2392 59.0194 18.0447 58.0289 18.0447C57.0384 18.0447 56.2328 17.2392 56.2328 16.2486C56.2328 15.2581 57.0384 14.4525 58.0289 14.4525ZM58.0289 13.9277C56.7471 13.9277 55.708 14.9668 55.708 16.2486C55.708 17.5304 56.7471 18.5695 58.0289 18.5695C59.3107 18.5695 60.3498 17.5304 60.3498 16.2486C60.3498 14.9668 59.3107 13.9277 58.0289 13.9277Z" fill="white"/>
<path d="M57.3564 12.686C56.2307 13.4693 54.8623 13.9272 53.3863 13.9272C52.712 13.9272 51.8789 13.7041 51.0654 13.4063V8.34601L52.3039 9.01643C52.9848 9.37591 53.7642 9.36279 54.407 9.04923C54.8347 8.84062 55.2021 8.49951 55.4409 8.04688L57.3564 12.686Z" fill="url(#paint0_linear_3185_53096)"/>
<path d="M46.4149 6.96324C46.4149 6.60639 46.4424 6.25609 46.4936 5.91366L36.5973 0.646073L35.8692 0.257729C34.7291 -0.327413 33.3292 0.121282 32.7441 1.26139C32.1589 2.4015 32.6076 3.80138 33.7477 4.38652L34.5546 4.81816L46.4149 11.1314V6.96324Z" fill="url(#paint1_linear_3185_53096)"/>
<path d="M37.1379 13.9277H32.4961V16.6304H37.1379V13.9277Z" fill="url(#paint2_linear_3185_53096)"/>
<path d="M37.1379 2.32186C37.1379 1.04006 36.0988 0.000976562 34.817 0.000976562C33.5352 0.000976562 32.4961 1.04006 32.4961 2.32186V9.28584H37.1379V2.32186Z" fill="url(#paint3_linear_3185_53096)"/>
<defs>
<linearGradient id="paint0_linear_3185_53096" x1="49.8292" y1="10.9871" x2="57.3394" y2="10.9871" gradientUnits="userSpaceOnUse">
<stop stop-color="#5F5C70" stop-opacity="0.2"/>
<stop offset="0.00703507" stop-color="#676477" stop-opacity="0.2078"/>
<stop offset="0.0442" stop-color="#8A8897" stop-opacity="0.2491"/>
<stop offset="0.086" stop-color="#AAA8B3" stop-opacity="0.2955"/>
<stop offset="0.1323" stop-color="#C5C4CB" stop-opacity="0.3469"/>
<stop offset="0.1845" stop-color="#DADADE" stop-opacity="0.4049"/>
<stop offset="0.2455" stop-color="#EBEBED" stop-opacity="0.4726"/>
<stop offset="0.3209" stop-color="#F6F6F7" stop-opacity="0.5564"/>
<stop offset="0.4267" stop-color="#FDFDFD" stop-opacity="0.6738"/>
<stop offset="0.7203" stop-color="white"/>
</linearGradient>
<linearGradient id="paint1_linear_3185_53096" x1="33.5464" y1="5.56528" x2="47.5525" y2="5.56528" gradientUnits="userSpaceOnUse">
<stop offset="0.6161" stop-color="white"/>
<stop offset="0.7638" stop-color="#FDFDFD" stop-opacity="0.6538"/>
<stop offset="0.8212" stop-color="#F6F6F7" stop-opacity="0.5192"/>
<stop offset="0.8629" stop-color="#EAEAED" stop-opacity="0.4215"/>
<stop offset="0.8969" stop-color="#D9D9DD" stop-opacity="0.3416"/>
<stop offset="0.9264" stop-color="#C3C2CA" stop-opacity="0.2726"/>
<stop offset="0.9526" stop-color="#A8A7B1" stop-opacity="0.2112"/>
<stop offset="0.9763" stop-color="#888695" stop-opacity="0.1556"/>
<stop offset="0.9976" stop-color="#646174" stop-opacity="0.1057"/>
<stop offset="1" stop-color="#5F5C70" stop-opacity="0.1"/>
</linearGradient>
<linearGradient id="paint2_linear_3185_53096" x1="34.8173" y1="15.4534" x2="34.8173" y2="12.7508" gradientUnits="userSpaceOnUse">
<stop offset="0.1123" stop-color="white" stop-opacity="0.9622"/>
<stop offset="0.2519" stop-color="#FBFBFB" stop-opacity="0.9682"/>
<stop offset="0.3912" stop-color="#EFEFF1" stop-opacity="0.9741"/>
<stop offset="0.5304" stop-color="#DCDBDF" stop-opacity="0.98"/>
<stop offset="0.6697" stop-color="#C0BFC7" stop-opacity="0.9859"/>
<stop offset="0.809" stop-color="#9D9BA7" stop-opacity="0.9919"/>
<stop offset="0.9466" stop-color="#726F81" stop-opacity="0.9977"/>
<stop offset="1" stop-color="#5F5C70"/>
</linearGradient>
<linearGradient id="paint3_linear_3185_53096" x1="34.8173" y1="1.25615" x2="34.8173" y2="10.5407" gradientUnits="userSpaceOnUse">
<stop offset="0.6673" stop-color="white"/>
<stop offset="0.7613" stop-color="#FDFDFD" stop-opacity="0.7951"/>
<stop offset="0.8115" stop-color="#F5F5F6" stop-opacity="0.6857"/>
<stop offset="0.8514" stop-color="#E8E7EA" stop-opacity="0.5988"/>
<stop offset="0.8858" stop-color="#D5D4D9" stop-opacity="0.5237"/>
<stop offset="0.9167" stop-color="#BCBBC3" stop-opacity="0.4563"/>
<stop offset="0.9451" stop-color="#9E9CA8" stop-opacity="0.3943"/>
<stop offset="0.9711" stop-color="#7B7889" stop-opacity="0.3378"/>
<stop offset="0.9884" stop-color="#5F5C70" stop-opacity="0.3"/>
</linearGradient>
</defs>
</svg>
