<svg width="22" height="24" viewBox="0 0 22 24" fill="none" xmlns="http://www.w3.org/2000/svg">
<path d="M20.1117 11.8866L11.6009 20.3971C11.0526 20.9454 10.4232 21.3539 9.75005 21.6269C8.74087 22.0361 7.63294 22.1391 6.57403 21.9339C5.5148 21.7287 4.509 21.2191 3.68667 20.3972C3.1387 19.8492 2.73061 19.2198 2.45728 18.5464C2.04811 17.5372 1.94498 16.4292 2.15025 15.3707C2.35584 14.3114 2.86509 13.3056 3.68672 12.4834L13.2084 2.96164C13.5432 2.62723 13.9256 2.37898 14.3351 2.21309C14.9491 1.96381 15.6249 1.90109 16.2693 2.02587C16.9147 2.15136 17.5254 2.4604 18.027 2.96164C18.3614 3.29605 18.6093 3.67845 18.7755 4.08828C19.0248 4.70197 19.0875 5.37744 18.9624 6.02253C18.8372 6.66762 18.5282 7.27798 18.027 7.78025L8.78859 17.0186C8.66981 17.1371 8.53664 17.2231 8.39316 17.2815C8.17889 17.3683 7.9403 17.391 7.7137 17.347C7.48645 17.3022 7.27519 17.1958 7.0973 17.0186C6.97851 16.8998 6.89273 16.7669 6.83466 16.6235C6.74723 16.4092 6.72487 16.1703 6.76894 15.944C6.81333 15.7171 6.92011 15.5055 7.0973 15.3276L15.3248 7.09976L13.9366 5.71147L5.70872 13.939C5.40234 14.2453 5.16942 14.6037 5.01492 14.9849C4.78331 15.5565 4.72589 16.1789 4.84139 16.7756C4.95619 17.3723 5.24855 17.947 5.70872 18.4068C6.01542 18.7138 6.3735 18.9468 6.75426 19.101C7.32623 19.3329 7.94831 19.39 8.54536 19.2745C9.1417 19.1597 9.71672 18.8677 10.1769 18.4068L19.4156 9.16878C19.9379 8.64617 20.333 8.03848 20.5953 7.39142C20.9887 6.42031 21.0865 5.36108 20.8903 4.3459C20.6944 3.33139 20.1998 2.3569 19.4156 1.57301C18.893 1.05073 18.2853 0.655623 17.6382 0.393358C16.6671 -0.000439256 15.6079 -0.0978924 14.5927 0.0979983C13.5782 0.294217 12.6037 0.788795 11.8198 1.57306L2.29837 11.095C1.56183 11.8305 1.00687 12.6855 0.63778 13.5959C0.0838576 14.9625 -0.0543299 16.4539 0.222326 17.8832C0.498326 19.3118 1.19344 20.6814 2.29842 21.7857C3.03426 22.5222 3.88894 23.0772 4.79967 23.4463C6.16589 23.9999 7.65764 24.1381 9.08662 23.8617C10.5153 23.5854 11.8849 22.8906 12.9892 21.7857L21.5001 13.2748L20.1117 11.8866Z" fill="#ADA8C0"/>
</svg>
