<svg width="16" height="16" viewBox="0 0 16 16" fill="none" xmlns="http://www.w3.org/2000/svg">
<path d="M13.5832 14.3888V5.62061H2.41691V14.3888H13.5832ZM13.5832 1.61124C14.0078 1.61124 14.3826 1.77361 14.7073 2.09836C15.032 2.42311 15.1944 2.79781 15.1944 3.22248V14.3888C15.1944 14.8134 15.032 15.1881 14.7073 15.5129C14.3826 15.8376 14.0078 16 13.5832 16H2.41691C1.96726 16 1.58006 15.8376 1.25531 15.5129C0.955547 15.1881 0.805664 14.8134 0.805664 14.3888V3.22248C0.805664 2.79781 0.955547 2.42311 1.25531 2.09836C1.58006 1.77361 1.96726 1.61124 2.41691 1.61124H3.20379V0H4.81503V1.61124H11.1851V0H12.7963V1.61124H13.5832ZM11.6347 8.05621L6.87592 12.815L4.32791 10.267L5.18974 9.40515L6.87592 11.0913L10.7729 7.19438L11.6347 8.05621Z" fill="#46464F"/>
</svg>
