<svg width="17" height="16" viewBox="0 0 17 16" fill="none" xmlns="http://www.w3.org/2000/svg">
<path d="M12.4499 10.892L9.55791 8L12.4499 5.10798L11.3232 3.98122L8.43115 6.87324L5.53913 3.98122L4.41237 5.10798L7.30439 8L4.41237 10.892L5.53913 12.0188L8.43115 9.12676L11.3232 12.0188L12.4499 10.892ZM2.75979 2.3662C4.33726 0.788732 6.22771 0 8.43115 0C10.6346 0 12.5125 0.788732 14.065 2.3662C15.6424 3.91862 16.4312 5.79656 16.4312 8C16.4312 10.2034 15.6424 12.0939 14.065 13.6714C12.5125 15.2238 10.6346 16 8.43115 16C6.22771 16 4.33726 15.2238 2.75979 13.6714C1.20737 12.0939 0.431152 10.2034 0.431152 8C0.431152 5.79656 1.20737 3.91862 2.75979 2.3662Z" fill="#46464F"/>
</svg>
