<svg width="24" height="24" viewBox="0 0 24 24" fill="none" xmlns="http://www.w3.org/2000/svg">
<path d="M12 2.12454C17.4199 2.12454 21.8355 5.94872 21.8355 10.6227C21.8355 15.2967 17.4199 19.1209 12 19.1209C10.8885 19.1403 9.78173 18.9736 8.72727 18.628L7.42857 18.1861L6.45887 19.1379C5.38923 20.1184 4.22994 21.0003 2.99567 21.7723C2.95603 21.7832 2.9141 21.7832 2.87446 21.7723V21.6703C3.78902 19.3367 3.88046 16.7695 3.1342 14.3789C2.55269 13.2362 2.22791 11.9842 2.18182 10.7077C2.18182 5.99971 6.5974 2.20952 12.0173 2.20952M12 0C5.36796 0 0 4.77597 0 10.6567C0.0391075 12.2129 0.416973 13.7428 1.10822 15.1437C1.65644 17.0968 1.54712 19.1714 0.796537 21.0585C0.647934 21.504 0.645265 21.9841 0.788904 22.4312C0.932544 22.8783 1.21527 23.27 1.59738 23.5513C1.97949 23.8326 2.44177 23.9893 2.91929 23.9995C3.39681 24.0096 3.86558 23.8727 4.25974 23.6079C5.59509 22.7543 6.84717 21.7814 8 20.7015C9.28718 21.1313 10.6406 21.3383 12 21.3134C18.632 21.3134 24 16.5374 24 10.6567C24 4.77597 18.632 0 12 0Z" fill="#3B4CDC"/>
</svg>
