<svg width="25" height="24" viewBox="0 0 25 24" fill="none" xmlns="http://www.w3.org/2000/svg">
<path fill-rule="evenodd" clip-rule="evenodd" d="M0.5 16.4651C0.5 16.0028 0.874831 15.6279 1.33721 15.6279H23.6628C24.1252 15.6279 24.5 16.0028 24.5 16.4651C24.5 16.9275 24.1252 17.3023 23.6628 17.3023H1.33721C0.874831 17.3023 0.5 16.9275 0.5 16.4651Z" fill="#3B4CDC"/>
<path fill-rule="evenodd" clip-rule="evenodd" d="M5.80233 3.90684C3.79869 3.90684 2.17442 5.53111 2.17442 7.53475V18.6975C2.17442 20.7011 3.79869 22.3254 5.80233 22.3254H19.1977C21.2013 22.3254 22.8256 20.7011 22.8256 18.6975V7.53475C22.8256 5.53111 21.2013 3.90684 19.1977 3.90684H5.80233ZM0.5 7.53475C0.5 4.60635 2.87393 2.23242 5.80233 2.23242H19.1977C22.126 2.23242 24.5 4.60635 24.5 7.53475V18.6975C24.5 21.6259 22.126 23.9999 19.1977 23.9999H5.80233C2.87393 23.9999 0.5 21.6259 0.5 18.6975V7.53475Z" fill="#3B4CDC"/>
<path fill-rule="evenodd" clip-rule="evenodd" d="M8.03484 0C8.49722 0 8.87205 0.374831 8.87205 0.837209V4.74419C8.87205 5.20656 8.49722 5.5814 8.03484 5.5814C7.57246 5.5814 7.19763 5.20656 7.19763 4.74419V0.837209C7.19763 0.374831 7.57246 0 8.03484 0Z" fill="#3B4CDC"/>
<path fill-rule="evenodd" clip-rule="evenodd" d="M16.9651 0C17.4275 0 17.8023 0.374831 17.8023 0.837209V4.74419C17.8023 5.20656 17.4275 5.5814 16.9651 5.5814C16.5028 5.5814 16.1279 5.20656 16.1279 4.74419V0.837209C16.1279 0.374831 16.5028 0 16.9651 0Z" fill="#3B4CDC"/>
</svg>
