<svg width="16" height="16" viewBox="0 0 16 16" fill="none" xmlns="http://www.w3.org/2000/svg">
<path d="M8.33333 13.3856L7.78667 12.8923C6.84651 12.029 6.06924 11.2843 5.45488 10.6582C4.84052 10.032 4.35111 9.4723 3.98667 8.97897C3.62222 8.48564 3.36667 8.03897 3.22 7.63897C3.07333 7.23897 3 6.83453 3 6.42564C3 5.62426 3.26889 4.95503 3.80667 4.41794C4.34444 3.88085 5.00889 3.6123 5.8 3.6123C6.30667 3.6123 6.77556 3.7323 7.20667 3.9723C7.63778 4.2123 8.01333 4.55897 8.33333 5.0123C8.70667 4.5323 9.10222 4.17897 9.52 3.9523C9.93778 3.72564 10.3867 3.6123 10.8667 3.6123C11.6578 3.6123 12.3222 3.88085 12.86 4.41794C13.3978 4.95503 13.6667 5.62426 13.6667 6.42564C13.6667 6.83453 13.5933 7.23897 13.4467 7.63897C13.3 8.03897 13.0444 8.48564 12.68 8.97897C12.3156 9.4723 11.8262 10.032 11.2118 10.6582C10.5974 11.2843 9.82016 12.029 8.88 12.8923L8.33333 13.3856ZM8.33333 12.3323C9.23321 11.5057 9.97373 10.7968 10.5549 10.2057C11.1361 9.61454 11.5978 9.09675 11.94 8.6523C12.2822 8.20786 12.5222 7.8117 12.66 7.46384C12.7978 7.11596 12.8667 6.77054 12.8667 6.42757C12.8667 5.83962 12.68 5.35675 12.3067 4.97897C11.9333 4.60119 11.4543 4.4123 10.8697 4.4123C10.4117 4.4123 9.98779 4.5523 9.598 4.8323C9.20822 5.1123 8.89333 5.50564 8.65333 6.0123H8C7.76889 5.51453 7.45844 5.12342 7.06867 4.83897C6.67888 4.55453 6.25499 4.4123 5.797 4.4123C5.21233 4.4123 4.73333 4.60119 4.36 4.97897C3.98667 5.35675 3.8 5.84038 3.8 6.42985C3.8 6.77371 3.86889 7.12119 4.00667 7.4723C4.14444 7.82342 4.38444 8.22342 4.72667 8.6723C5.06889 9.12119 5.53333 9.63897 6.12 10.2256C6.70667 10.8123 7.44444 11.5145 8.33333 12.3323Z" fill="#5B5D72"/>
</svg>
