<svg width="16" height="16" viewBox="0 0 16 16" fill="none" xmlns="http://www.w3.org/2000/svg">
<path d="M12.5233 10.4879C11.7855 11.2504 10.558 12.404 8.833 13.9541L8.00603 14.6744L7.17132 13.9204C7.17121 13.9203 7.17109 13.9202 7.17098 13.9201C5.84456 12.7188 4.88508 11.834 4.28961 11.2634C3.70235 10.7006 3.03709 9.99881 2.29322 9.15588C1.58793 8.32856 1.12493 7.613 0.877367 7.00667C0.624721 6.36256 0.5 5.71182 0.5 5.05159C0.5 3.95106 0.865012 3.03916 1.59563 2.28514C2.34862 1.53342 3.27043 1.15723 4.39437 1.15723C5.69677 1.15723 6.7598 1.65369 7.61798 2.66996L8 3.12234L8.38202 2.66996C9.2402 1.65369 10.3032 1.15723 11.6056 1.15723C12.7307 1.15723 13.6377 1.53397 14.3642 2.28246L14.3642 2.2825L14.3695 2.28778C15.125 3.04335 15.5 3.95445 15.5 5.05159C15.5 5.91332 15.2133 6.83722 14.5983 7.83067C13.9651 8.85359 13.2748 9.73631 12.5291 10.4821L12.529 10.482L12.5233 10.4879Z" fill="#FF5449" stroke="white"/>
</svg>
