<svg width="13" height="20" viewBox="0 0 13 20" fill="none" xmlns="http://www.w3.org/2000/svg">
<path d="M6.71558 0.573242C3.24388 0.573242 0.431152 3.52961 0.431152 7.17278C0.431152 10.816 6.71558 19.4265 6.71558 19.4265C6.71558 19.4265 13 10.8151 13 7.17278C13 3.53051 10.1873 0.573242 6.71558 0.573242Z" fill="#FB3309"/>
<path d="M4.02246 6.85739C4.02246 7.5717 4.30622 8.25676 4.81132 8.76186C5.31641 9.26695 6.00147 9.55071 6.71579 9.55071C7.4301 9.55071 8.11516 9.26695 8.62025 8.76186C9.12535 8.25676 9.40911 7.5717 9.40911 6.85739C9.40911 6.14307 9.12535 5.45801 8.62025 4.95292C8.11516 4.44782 7.4301 4.16406 6.71579 4.16406C6.00147 4.16406 5.31641 4.44782 4.81132 4.95292C4.30622 5.45801 4.02246 6.14307 4.02246 6.85739Z" fill="#FFEED9"/>
</svg>
