<svg width="16" height="16" viewBox="0 0 16 16" fill="none" xmlns="http://www.w3.org/2000/svg">
<path d="M5.15625 5.1875C4.38542 5.95833 4 6.89583 4 8C4 9.10417 4.38542 10.0521 5.15625 10.8438C5.94792 11.6146 6.89583 12 8 12C9.10417 12 10.0417 11.6146 10.8125 10.8438C11.6042 10.0521 12 9.10417 12 8C12 6.89583 11.6042 5.95833 10.8125 5.1875C10.0417 4.39583 9.10417 4 8 4C6.89583 4 5.94792 4.39583 5.15625 5.1875ZM11.3125 3.8125C12.6667 4.89583 13.3438 6.29167 13.3438 8C13.3438 9.70833 12.6667 11.1042 11.3125 12.1875L10.6562 16H5.34375L4.6875 12.1875C3.33333 11.1458 2.65625 9.75 2.65625 8C2.65625 6.25 3.33333 4.85417 4.6875 3.8125L5.34375 0H10.6562L11.3125 3.8125Z" fill="#46464F"/>
</svg>
